{
  "asset": {
    "version": "2.0",
    "generator": "CSV to GLTF Converter"
  },
  "scene": 0,
  "scenes": [
    {
      "nodes": [
        0
      ]
    }
  ],
  "nodes": [
    {
      "mesh": 0
    }
  ],
  "meshes": [
    {
      "primitives": [
        {
          "attributes": {
            "POSITION": 0,
            "COLOR_0": 1,
            "NORMAL": 2,
            "TEXCOORD_0": 3
          },
          "indices": 4,
          "mode": 4
        }
      ]
    }
  ],
  "accessors": [
    {
      "bufferView": 0,
      "componentType": 5126,
      "count": 2256,
      "type": "VEC3",
      "min": [
        -65.03125,
        -0.332031,
        -23.633789
      ],
      "max": [
        70.169922,
        137.769531,
        69.366211
      ]
    },
    {
      "bufferView": 1,
      "componentType": 5126,
      "count": 2256,
      "type": "VEC3"
    },
    {
      "bufferView": 2,
      "componentType": 5126,
      "count": 2256,
      "type": "VEC3"
    },
    {
      "bufferView": 3,
      "componentType": 5126,
      "count": 2256,
      "type": "VEC2"
    },
    {
      "bufferView": 4,
      "componentType": 5123,
      "count": 2256,
      "type": "SCALAR"
    }
  ],
  "bufferViews": [
    {
      "buffer": 0,
      "byteOffset": 0,
      "byteLength": 27072,
      "target": 34962
    },
    {
      "buffer": 0,
      "byteOffset": 27072,
      "byteLength": 27072,
      "target": 34962
    },
    {
      "buffer": 0,
      "byteOffset": 54144,
      "byteLength": 27072,
      "target": 34962
    },
    {
      "buffer": 0,
      "byteOffset": 81216,
      "byteLength": 18048,
      "target": 34962
    },
    {
      "buffer": 0,
      "byteOffset": 99264,
      "byteLength": 4512,
      "target": 34963
    }
  ],
  "buffers": [
    {
      "byteLength": 103776,
      "uri": "data:application/octet-stream;base64,"
    }
  ]
}